<svg xmlns="http://www.w3.org/2000/svg" viewBox="0 0 1200 900" width="100%" height="100%">
  <defs>
    <filter id="layerShadow" x="-10%" y="-10%" width="130%" height="130%">
      <feDropShadow dx="8" dy="12" stdDeviation="14" flood-color="#022c22" flood-opacity="0.08" />
    </filter>

    <filter id="widgetShadow" x="-10%" y="-10%" width="120%" height="120%">
      <feDropShadow dx="0" dy="4" stdDeviation="10" flood-color="#0f172a" flood-opacity="0.05" />
    </filter>

    <linearGradient id="emeraldGrad" x1="0" y1="0" x2="1" y2="0">
      <stop offset="0%" stop-color="#34d399" />
      <stop offset="100%" stop-color="#10b981" />
    </linearGradient>
    
    <linearGradient id="chartFill" x1="0" y1="0" x2="0" y2="1">
      <stop offset="0%" stop-color="#10b981" stop-opacity="0.2" />
      <stop offset="100%" stop-color="#10b981" stop-opacity="0.0" />
    </linearGradient>

    <linearGradient id="aiGrad" x1="0" y1="0" x2="1" y2="1">
      <stop offset="0%" stop-color="#8b5cf6" />
      <stop offset="100%" stop-color="#6366f1" />
    </linearGradient>

    <g id="ui-skeleton">
      <rect x="20" y="20" width="1100" height="80" rx="16" fill="#f8fafc" stroke="#f1f5f9" stroke-width="2"/>
      <rect x="20" y="120" width="60" height="700" rx="16" fill="#f8fafc" stroke="#f1f5f9" stroke-width="2"/>
      <rect x="100" y="120" width="320" height="180" rx="16" fill="#f8fafc" stroke="#f1f5f9" stroke-width="2"/>
      <rect x="440" y="120" width="400" height="180" rx="16" fill="#f8fafc" stroke="#f1f5f9" stroke-width="2"/>
      <rect x="860" y="120" width="260" height="180" rx="16" fill="#f8fafc" stroke="#f1f5f9" stroke-width="2"/>
      <rect x="100" y="320" width="740" height="280" rx="16" fill="#f8fafc" stroke="#f1f5f9" stroke-width="2"/>
      <rect x="860" y="320" width="260" height="280" rx="16" fill="#f8fafc" stroke="#f1f5f9" stroke-width="2"/>
      <rect x="100" y="620" width="520" height="200" rx="16" fill="#f8fafc" stroke="#f1f5f9" stroke-width="2"/>
      <rect x="640" y="620" width="480" height="200" rx="16" fill="#f8fafc" stroke="#f1f5f9" stroke-width="2"/>
    </g>
  </defs>

  <rect width="100%" height="100%" fill="transparent" />

  <g transform="translate(30, 30)">
    <rect width="1140" height="840" rx="20" fill="#ffffff" filter="url(#layerShadow)" />
    <use href="#ui-skeleton" opacity="0.3" />
    <animateTransform attributeName="transform" type="translate" from="0 0" to="30 30" dur="0.8s" fill="freeze" calcMode="spline" keySplines="0.16 1 0.3 1" />
  </g>

  <g transform="translate(15, 15)">
    <rect width="1140" height="840" rx="20" fill="#ffffff" filter="url(#layerShadow)" />
    <use href="#ui-skeleton" opacity="0.6" />
    <animateTransform attributeName="transform" type="translate" from="0 0" to="15 15" dur="0.6s" fill="freeze" calcMode="spline" keySplines="0.16 1 0.3 1" />
  </g>

  <g transform="translate(0, 0)">
    <rect width="1140" height="840" rx="20" fill="#f4f5f7" filter="url(#layerShadow)" />
    <animateTransform attributeName="transform" type="translate" from="-20 -20" to="0 0" dur="0.5s" fill="freeze" calcMode="spline" keySplines="0.16 1 0.3 1" />
    <animate attributeName="opacity" from="0" to="1" dur="0.5s" fill="freeze" />

    <g transform="translate(20, 20)">
      <rect width="1100" height="80" rx="20" fill="#ffffff" filter="url(#widgetShadow)" />
      
      <path d="M 40 40 L 50 25 L 60 40 L 50 55 Z" fill="#10b981" />
      <path d="M 50 40 L 60 25 L 70 40 L 60 55 Z" fill="#0f172a" />
      <text x="85" y="46" font-family="system-ui, sans-serif" font-size="20" font-weight="800" fill="#0f172a">Quantum Wealth</text>

      <rect x="300" y="20" width="300" height="40" rx="20" fill="#f1f5f9" />
      <circle cx="325" cy="40" r="6" fill="none" stroke="#64748b" stroke-width="2"/>
      <line x1="329" y1="44" x2="334" y2="49" stroke="#64748b" stroke-width="2" stroke-linecap="round"/>
      <text x="350" y="45" font-family="system-ui, sans-serif" font-size="13" font-weight="500" fill="#94a3b8">Search stocks, crypto, news...</text>

      <circle cx="1000" cy="40" r="20" fill="none" stroke="#e2e8f0" stroke-width="1.5" />
      <path d="M995,42 c0,-3 10,-3 10,0 v3 h-10 z M1000,48 a2,2 0 0,1 -2,-2 h4 a2,2 0 0,1 -2,2" fill="none" stroke="#64748b" stroke-width="1.5"/>
      <circle cx="1005" cy="35" r="4" fill="#ef4444" /> <circle cx="1050" cy="40" r="18" fill="#10b981" />
      <text x="1050" y="45" font-family="system-ui, sans-serif" font-size="14" font-weight="700" fill="#ffffff" text-anchor="middle">JS</text>
    </g>

    <g transform="translate(20, 120)">
      <rect width="60" height="700" rx="20" fill="#ffffff" filter="url(#widgetShadow)" />
      
      <g fill="none" stroke="#64748b" stroke-width="2" stroke-linecap="round" stroke-linejoin="round">
        <rect x="15" y="20" width="30" height="40" rx="10" fill="#ecfdf5" stroke="none" />
        <rect x="23" y="30" width="6" height="6" rx="1" stroke="#10b981"/><rect x="31" y="30" width="6" height="6" rx="1" stroke="#10b981"/><rect x="23" y="38" width="6" height="6" rx="1" stroke="#10b981"/><rect x="31" y="38" width="6" height="6" rx="1" stroke="#10b981"/>
        
        <path d="M22,100 v16 M30,94 v22 M38,104 v12" />
        
        <circle cx="30" cy="160" r="8" />
        <path d="M30,152 v16 M26,156 h8 M26,164 h8" />

        <rect x="22" y="220" width="16" height="16" rx="2" />
        <path d="M26,225 h8 M26,230 h8 M26,235 h4" />

        <circle cx="30" cy="650" r="6" />
        <path d="M30,642 v2 M30,656 v2 M22,650 h2 M36,650 h2" />
      </g>
    </g>

    <g transform="translate(100, 120)">
      <rect width="320" height="180" rx="16" fill="#ffffff" filter="url(#widgetShadow)" />
      <text x="25" y="40" font-family="system-ui, sans-serif" font-size="14" font-weight="600" fill="#64748b">Total Portfolio Value</text>
      
      <text x="25" y="85" font-family="system-ui, sans-serif" font-size="36" font-weight="800" fill="#0f172a">
        <tspan fill="#10b981">$</tspan>142,580<tspan font-size="24" fill="#94a3b8">.00</tspan>
      </text>

      <rect x="25" y="110" width="70" height="24" rx="12" fill="#ecfdf5" />
      <text x="60" y="126" font-family="system-ui, sans-serif" font-size="12" font-weight="700" fill="#10b981" text-anchor="middle">+ 2.4%</text>
      <text x="105" y="126" font-family="system-ui, sans-serif" font-size="13" font-weight="500" fill="#64748b">+$3,450 Today</text>

      <path d="M 25 160 Q 60 140 100 155 T 180 145 T 250 155 T 300 135" fill="none" stroke="#10b981" stroke-width="3" stroke-linecap="round">
        <animate attributeName="stroke-dasharray" values="0,300; 300,0" dur="1.5s" fill="freeze" calcMode="spline" keySplines="0.4 0 0.2 1" />
      </path>
    </g>

    <g transform="translate(440, 120)">
      <rect width="400" height="180" rx="16" fill="#ffffff" filter="url(#widgetShadow)" />
      <text x="25" y="35" font-family="system-ui, sans-serif" font-size="14" font-weight="700" fill="#0f172a">Crypto Watchlist</text>
      <text x="340" y="35" font-family="system-ui, sans-serif" font-size="12" font-weight="600" fill="#3b82f6" cursor="pointer">View All</text>

      <g transform="translate(25, 60)">
        <circle cx="15" cy="15" r="15" fill="#f59e0b" opacity="0.2"/>
        <text x="15" y="20" font-family="system-ui, sans-serif" font-size="10" font-weight="800" fill="#d97706" text-anchor="middle">₿</text>
        <text x="40" y="14" font-family="system-ui, sans-serif" font-size="14" font-weight="700" fill="#0f172a">Bitcoin</text>
        <text x="40" y="28" font-family="system-ui, sans-serif" font-size="11" font-weight="500" fill="#64748b">BTC</text>
        
        <path d="M 120 20 Q 130 10 140 15 T 160 5 T 180 10" fill="none" stroke="#10b981" stroke-width="2" stroke-linecap="round"/>
        
        <text x="350" y="14" font-family="system-ui, sans-serif" font-size="14" font-weight="700" fill="#0f172a" text-anchor="end">
          <tspan>$64,230</tspan>
          <animate attributeName="opacity" values="1;0.5;1" dur="3s" repeatCount="indefinite"/>
        </text>
        <text x="350" y="28" font-family="system-ui, sans-serif" font-size="11" font-weight="600" fill="#10b981" text-anchor="end">+ 5.2%</text>
      </g>

      <g transform="translate(25, 105)">
        <circle cx="15" cy="15" r="15" fill="#6366f1" opacity="0.2"/>
        <text x="15" y="20" font-family="system-ui, sans-serif" font-size="10" font-weight="800" fill="#4f46e5" text-anchor="middle">Ξ</text>
        <text x="40" y="14" font-family="system-ui, sans-serif" font-size="14" font-weight="700" fill="#0f172a">Ethereum</text>
        <text x="40" y="28" font-family="system-ui, sans-serif" font-size="11" font-weight="500" fill="#64748b">ETH</text>
        
        <path d="M 120 10 Q 130 20 140 15 T 160 25 T 180 20" fill="none" stroke="#ef4444" stroke-width="2" stroke-linecap="round"/>
        
        <text x="350" y="14" font-family="system-ui, sans-serif" font-size="14" font-weight="700" fill="#0f172a" text-anchor="end">$3,412</text>
        <text x="350" y="28" font-family="system-ui, sans-serif" font-size="11" font-weight="600" fill="#ef4444" text-anchor="end">- 1.1%</text>
      </g>

      <g transform="translate(25, 150)">
        <circle cx="15" cy="15" r="15" fill="#14b8a6" opacity="0.2"/>
        <text x="15" y="20" font-family="system-ui, sans-serif" font-size="10" font-weight="800" fill="#0d9488" text-anchor="middle">S</text>
        <text x="40" y="14" font-family="system-ui, sans-serif" font-size="14" font-weight="700" fill="#0f172a">Solana</text>
        <text x="40" y="28" font-family="system-ui, sans-serif" font-size="11" font-weight="500" fill="#64748b">SOL</text>
        
        <path d="M 120 25 Q 130 15 140 20 T 160 5 T 180 -5" fill="none" stroke="#10b981" stroke-width="2" stroke-linecap="round"/>
        
        <text x="350" y="14" font-family="system-ui, sans-serif" font-size="14" font-weight="700" fill="#0f172a" text-anchor="end">$145.80</text>
        <text x="350" y="28" font-family="system-ui, sans-serif" font-size="11" font-weight="600" fill="#10b981" text-anchor="end">+ 12.4%</text>
      </g>
    </g>

    <g transform="translate(860, 120)">
      <rect width="260" height="180" rx="16" fill="#ffffff" filter="url(#widgetShadow)" />
      
      <rect width="260" height="60" rx="16" fill="url(#aiGrad)" />
      <path d="M0,44 a16,16 0 0,0 16,16 h228 a16,16 0 0,0 16,-16 v16 h-260 z" fill="#ffffff"/>
      
      <text x="25" y="35" font-family="system-ui, sans-serif" font-size="14" font-weight="700" fill="#ffffff">AI Market Prediction</text>
      
      <circle cx="225" cy="30" r="12" fill="#ffffff" opacity="0.2" />
      <circle cx="225" cy="30" r="4" fill="#ffffff">
        <animate attributeName="r" values="4;8;4" dur="2s" repeatCount="indefinite" />
        <animate attributeName="opacity" values="1;0;1" dur="2s" repeatCount="indefinite" />
      </circle>

      <text x="25" y="90" font-family="system-ui, sans-serif" font-size="11" font-weight="600" fill="#64748b">S&amp;P 500 NEXT 7 DAYS</text>
      <text x="25" y="115" font-family="system-ui, sans-serif" font-size="20" font-weight="800" fill="#0f172a">Strong Bullish</text>
      
      <rect x="25" y="135" width="210" height="8" rx="4" fill="#f1f5f9" />
      <rect x="25" y="135" width="160" height="8" rx="4" fill="url(#aiGrad)">
        <animate attributeName="width" from="0" to="160" dur="1.5s" fill="freeze" calcMode="spline" keySplines="0.4 0 0.2 1" />
      </rect>
      <text x="25" y="160" font-family="system-ui, sans-serif" font-size="11" font-weight="700" fill="#8b5cf6">82% Confidence Score</text>
    </g>

    <g transform="translate(100, 320)">
      <rect width="740" height="280" rx="16" fill="#ffffff" filter="url(#widgetShadow)" />
      
      <text x="30" y="40" font-family="system-ui, sans-serif" font-size="18" font-weight="700" fill="#0f172a">Portfolio Performance</text>
      
      <g transform="translate(480, 20)">
        <rect x="0" y="0" width="230" height="36" rx="18" fill="#f1f5f9" />
        <rect x="170" y="4" width="56" height="28" rx="14" fill="#ffffff" filter="url(#widgetShadow)" />
        <text x="25" y="22" font-family="system-ui, sans-serif" font-size="12" font-weight="600" fill="#64748b" text-anchor="middle">1D</text>
        <text x="83" y="22" font-family="system-ui, sans-serif" font-size="12" font-weight="600" fill="#64748b" text-anchor="middle">1W</text>
        <text x="141" y="22" font-family="system-ui, sans-serif" font-size="12" font-weight="600" fill="#64748b" text-anchor="middle">1M</text>
        <text x="198" y="22" font-family="system-ui, sans-serif" font-size="12" font-weight="700" fill="#0f172a" text-anchor="middle">1Y</text>
      </g>

      <g stroke="#f1f5f9" stroke-width="1.5" stroke-dasharray="4 4">
        <line x1="30" y1="80" x2="700" y2="80" />
        <line x1="30" y1="130" x2="700" y2="130" />
        <line x1="30" y1="180" x2="700" y2="180" />
        <line x1="30" y1="230" x2="700" y2="230" />
      </g>

      <g font-family="system-ui, sans-serif" font-size="11" fill="#94a3b8">
        <text x="30" y="75">$150k</text>
        <text x="30" y="125">$125k</text>
        <text x="30" y="175">$100k</text>
        <text x="30" y="225">$75k</text>
      </g>

      <g font-family="system-ui, sans-serif" font-size="11" fill="#94a3b8" text-anchor="middle">
        <text x="100" y="260">Jan</text>
        <text x="250" y="260">Apr</text>
        <text x="400" y="260">Jul</text>
        <text x="550" y="260">Oct</text>
        <text x="700" y="260">Dec</text>
      </g>

      <path d="M 80 230 C 150 200, 200 240, 280 160 C 350 90, 420 180, 520 110 C 600 50, 650 90, 700 60" 
            fill="none" stroke="#10b981" stroke-width="4" stroke-linecap="round"
            stroke-dasharray="1000" stroke-dashoffset="1000">
        <animate attributeName="stroke-dashoffset" to="0" dur="2s" begin="0.5s" fill="freeze" calcMode="spline" keySplines="0.4 0 0.2 1" />
      </path>

      <path d="M 80 230 C 150 200, 200 240, 280 160 C 350 90, 420 180, 520 110 C 600 50, 650 90, 700 60 L 700 230 L 80 230 Z" 
            fill="url(#chartFill)" opacity="0">
        <animate attributeName="opacity" to="1" dur="1s" begin="2s" fill="freeze" />
      </path>

      <line x1="700" y1="60" x2="700" y2="230" stroke="#10b981" stroke-width="2" stroke-dasharray="4 4" opacity="0">
         <animate attributeName="opacity" to="1" dur="0.5s" begin="2.5s" fill="freeze" />
      </line>
      <circle cx="700" cy="60" r="6" fill="#ffffff" stroke="#10b981" stroke-width="3" opacity="0">
         <animate attributeName="opacity" to="1" dur="0.5s" begin="2.5s" fill="freeze" />
      </circle>
    </g>

    <g transform="translate(860, 320)">
      <rect width="260" height="280" rx="16" fill="#ffffff" filter="url(#widgetShadow)" />
      <text x="25" y="35" font-family="system-ui, sans-serif" font-size="16" font-weight="700" fill="#0f172a">Asset Allocation</text>
      
      <g transform="translate(130, 130)">
        <circle cx="0" cy="0" r="60" fill="none" stroke="#f1f5f9" stroke-width="20" />
        <circle cx="0" cy="0" r="60" fill="none" stroke="#10b981" stroke-width="20" stroke-dasharray="377" stroke-dashoffset="150" transform="rotate(-90)" stroke-linecap="round">
          <animate attributeName="stroke-dashoffset" values="377;150" dur="1.5s" begin="0.5s" fill="freeze" calcMode="spline" keySplines="0.4 0 0.2 1" />
        </circle>
        <circle cx="0" cy="0" r="60" fill="none" stroke="#6366f1" stroke-width="20" stroke-dasharray="377" stroke-dashoffset="263" transform="rotate(126)" stroke-linecap="round">
           <animate attributeName="stroke-dashoffset" values="377;263" dur="1.5s" begin="0.7s" fill="freeze" calcMode="spline" keySplines="0.4 0 0.2 1" />
        </circle>
        <circle cx="0" cy="0" r="60" fill="none" stroke="#f59e0b" stroke-width="20" stroke-dasharray="377" stroke-dashoffset="339" transform="rotate(234)" stroke-linecap="round">
           <animate attributeName="stroke-dashoffset" values="377;339" dur="1.5s" begin="0.9s" fill="freeze" calcMode="spline" keySplines="0.4 0 0.2 1" />
        </circle>
        
        <text x="0" y="-5" font-family="system-ui, sans-serif" font-size="22" font-weight="800" fill="#0f172a" text-anchor="middle">3</text>
        <text x="0" y="15" font-family="system-ui, sans-serif" font-size="10" font-weight="600" fill="#64748b" text-anchor="middle">Assets</text>
      </g>

      <g transform="translate(25, 220)" font-family="system-ui, sans-serif" font-size="12" font-weight="600" fill="#334155">
        <circle cx="5" cy="-4" r="5" fill="#10b981" /> <text x="15" y="0">Stocks 60%</text>
        <circle cx="110" cy="-4" r="5" fill="#6366f1" /> <text x="120" y="0">Crypto 30%</text>
        <circle cx="5" cy="16" r="5" fill="#f59e0b" /> <text x="15" y="20">Cash 10%</text>
      </g>
    </g>

    <g transform="translate(100, 620)">
      <rect width="520" height="200" rx="16" fill="#ffffff" filter="url(#widgetShadow)" />
      
      <text x="30" y="35" font-family="system-ui, sans-serif" font-size="16" font-weight="700" fill="#0f172a">Live Market News</text>
      
      <circle cx="175" cy="30" r="4" fill="#ef4444">
        <animate attributeName="opacity" values="1;0;1" dur="1.5s" repeatCount="indefinite" />
      </circle>

      <g transform="translate(30, 65)">
        <rect width="40" height="40" rx="8" fill="#f1f5f9" />
        <path d="M12,20 h16 M12,25 h16 M12,30 h8" fill="none" stroke="#64748b" stroke-width="2" stroke-linecap="round"/>
        <text x="55" y="16" font-family="system-ui, sans-serif" font-size="13" font-weight="700" fill="#0f172a">Fed signals potential rate cut by Q3</text>
        <text x="55" y="34" font-family="system-ui, sans-serif" font-size="11" font-weight="500" fill="#64748b">Reuters • 12 mins ago</text>
      </g>

      <line x1="30" y1="120" x2="490" y2="120" stroke="#f1f5f9" stroke-width="1.5"/>

      <g transform="translate(30, 135)">
        <rect width="40" height="40" rx="8" fill="#f1f5f9" />
        <path d="M12,20 h16 M12,25 h16 M12,30 h8" fill="none" stroke="#64748b" stroke-width="2" stroke-linecap="round"/>
        <text x="55" y="16" font-family="system-ui, sans-serif" font-size="13" font-weight="700" fill="#0f172a">Tech sector rallies driven by AI earnings beat</text>
        <text x="55" y="34" font-family="system-ui, sans-serif" font-size="11" font-weight="500" fill="#64748b">Bloomberg • 1 hour ago</text>
      </g>
    </g>

    <g transform="translate(640, 620)">
      <rect width="480" height="200" rx="16" fill="#ffffff" filter="url(#widgetShadow)" />
      
      <text x="30" y="35" font-family="system-ui, sans-serif" font-size="16" font-weight="700" fill="#0f172a">Top Movers</text>
      <text x="400" y="35" font-family="system-ui, sans-serif" font-size="12" font-weight="600" fill="#3b82f6" cursor="pointer">See All</text>

      <text x="30" y="65" font-family="system-ui, sans-serif" font-size="10" font-weight="600" fill="#94a3b8">ASSET</text>
      <text x="250" y="65" font-family="system-ui, sans-serif" font-size="10" font-weight="600" fill="#94a3b8" text-anchor="end">PRICE</text>
      <text x="350" y="65" font-family="system-ui, sans-serif" font-size="10" font-weight="600" fill="#94a3b8" text-anchor="end">CHANGE</text>
      <text x="450" y="65" font-family="system-ui, sans-serif" font-size="10" font-weight="600" fill="#94a3b8" text-anchor="end">YIELD</text>

      <line x1="30" y1="75" x2="450" y2="75" stroke="#f1f5f9" stroke-width="1.5"/>

      <g transform="translate(30, 100)">
        <rect width="24" height="24" rx="6" fill="#f8fafc" />
        <path d="M12,14 a3,3 0 0,0 6,0 a3,3 0 0,0 -6,0" fill="#0f172a"/>
        <text x="35" y="16" font-family="system-ui, sans-serif" font-size="13" font-weight="700" fill="#0f172a">Apple Inc. (AAPL)</text>
        <text x="220" y="16" font-family="system-ui, sans-serif" font-size="13" font-weight="600" fill="#0f172a" text-anchor="end">$ 189.43</text>
        <rect x="260" y="2" width="60" height="20" rx="4" fill="#ecfdf5" />
        <text x="290" y="15" font-family="system-ui, sans-serif" font-size="11" font-weight="700" fill="#10b981" text-anchor="middle">+ 1.2%</text>
        <text x="420" y="16" font-family="system-ui, sans-serif" font-size="13" font-weight="600" fill="#0f172a" text-anchor="end">0.53%</text>
      </g>

      <line x1="30" y1="135" x2="450" y2="135" stroke="#f1f5f9" stroke-width="1.5"/>

      <g transform="translate(30, 155)">
        <rect width="24" height="24" rx="6" fill="#f8fafc" />
        <path d="M8,8 h8 l-4,8 z" fill="#0f172a"/>
        <text x="35" y="16" font-family="system-ui, sans-serif" font-size="13" font-weight="700" fill="#0f172a">Tesla Inc. (TSLA)</text>
        <text x="220" y="16" font-family="system-ui, sans-serif" font-size="13" font-weight="600" fill="#0f172a" text-anchor="end">$ 174.60</text>
        <rect x="260" y="2" width="60" height="20" rx="4" fill="#fef2f2" />
        <text x="290" y="15" font-family="system-ui, sans-serif" font-size="11" font-weight="700" fill="#ef4444" text-anchor="middle">- 3.4%</text>
        <text x="420" y="16" font-family="system-ui, sans-serif" font-size="13" font-weight="600" fill="#0f172a" text-anchor="end">0.00%</text>
      </g>
    </g>

  </g>
</svg>
