<svg xmlns="http://www.w3.org/2000/svg" viewBox="0 0 1100 750" width="100%" height="100%">
  <defs>
    <filter id="layerShadow" x="-10%" y="-10%" width="130%" height="130%">
      <feDropShadow dx="8" dy="12" stdDeviation="14" flood-color="#022c22" flood-opacity="0.08" />
    </filter>

    <filter id="widgetShadow" x="-10%" y="-10%" width="120%" height="120%">
      <feDropShadow dx="0" dy="4" stdDeviation="10" flood-color="#0f172a" flood-opacity="0.05" />
    </filter>

    <pattern id="qrNoise" x="0" y="0" width="8" height="8" patternUnits="userSpaceOnUse">
      <rect x="0" y="0" width="4" height="4" fill="#0f172a"/>
      <rect x="4" y="4" width="4" height="4" fill="#0f172a"/>
      <rect x="0" y="4" width="2" height="2" fill="#0f172a"/>
      <rect x="6" y="0" width="2" height="2" fill="#0f172a"/>
    </pattern>

    <g id="ui-skeleton">
      <rect x="0" y="0" width="220" height="650" rx="16" fill="#ffffff" stroke="#f1f5f9" stroke-width="2"/>
      <rect x="250" y="80" width="380" height="540" rx="12" fill="#ffffff" stroke="#f1f5f9" stroke-width="2"/>
      <rect x="660" y="80" width="360" height="260" rx="8" fill="#ffffff" stroke="#f1f5f9" stroke-width="2"/>
      <rect x="660" y="370" width="360" height="250" rx="8" fill="#ffffff" stroke="#f1f5f9" stroke-width="2"/>
    </g>
  </defs>

  <rect width="100%" height="100%" fill="#ecfdf5" />

  <g transform="translate(30, 30)">
    <rect width="1040" height="650" rx="20" fill="#ffffff" filter="url(#layerShadow)" />
    <use href="#ui-skeleton" opacity="0.2" />
    <animateTransform attributeName="transform" type="translate" from="0 0" to="30 30" dur="0.8s" fill="freeze" calcMode="spline" keySplines="0.16 1 0.3 1" />
  </g>

  <g transform="translate(15, 15)">
    <rect width="1040" height="650" rx="20" fill="#ffffff" filter="url(#layerShadow)" />
    <use href="#ui-skeleton" opacity="0.5" />
    <animateTransform attributeName="transform" type="translate" from="0 0" to="15 15" dur="0.6s" fill="freeze" calcMode="spline" keySplines="0.16 1 0.3 1" />
  </g>

  <g transform="translate(0, 0)">
    <rect width="1040" height="650" rx="20" fill="#f8fafc" filter="url(#layerShadow)" />
    <animateTransform attributeName="transform" type="translate" from="-20 -20" to="0 0" dur="0.5s" fill="freeze" calcMode="spline" keySplines="0.16 1 0.3 1" />
    <animate attributeName="opacity" from="0" to="1" dur="0.5s" fill="freeze" />

    <g transform="translate(0, 0)">
      <rect width="220" height="650" rx="20" fill="#ffffff" filter="url(#widgetShadow)" />
      
      <path d="M 30 55 C 30 45 40 45 40 55 C 40 65 30 65 30 55 Z M 40 55 C 40 40 55 40 55 55 C 55 70 40 70 40 55 Z M 55 55 C 55 45 65 45 65 55 C 65 65 55 65 55 55 Z" fill="#34d399" opacity="0.8"/>
      <text x="75" y="60" font-family="system-ui, sans-serif" font-size="20" font-weight="700" fill="#0f172a">MyHealth</text>

      <g font-family="system-ui, sans-serif" font-size="14" font-weight="600" fill="#64748b">
        <rect x="30" y="110" width="6" height="6" rx="1" fill="none" stroke="#94a3b8" stroke-width="2"/><rect x="40" y="110" width="6" height="6" rx="1" fill="none" stroke="#94a3b8" stroke-width="2"/><rect x="30" y="120" width="6" height="6" rx="1" fill="none" stroke="#94a3b8" stroke-width="2"/><rect x="40" y="120" width="6" height="6" rx="1" fill="none" stroke="#94a3b8" stroke-width="2"/>
        <text x="65" y="123">Dashboard</text>

        <circle cx="38" cy="170" r="4" fill="none" stroke="#94a3b8" stroke-width="2"/>
        <path d="M30,182 c0,-4 16,-4 16,0" fill="none" stroke="#94a3b8" stroke-width="2" stroke-linecap="round"/>
        <text x="65" y="179">Doctors</text>

        <rect x="30" y="222" width="16" height="16" rx="3" fill="none" stroke="#94a3b8" stroke-width="2"/>
        <path d="M30,228 h16 M34,218 v6 M42,218 v6" fill="none" stroke="#94a3b8" stroke-width="2" stroke-linecap="round"/>
        <text x="65" y="235">Appointments</text>

        <rect x="0" y="265" width="220" height="50" fill="#ecfdf5" />
        <rect x="0" y="265" width="4" height="50" fill="#10b981" />
        <rect x="30" y="280" width="14" height="18" rx="2" fill="none" stroke="#10b981" stroke-width="2"/>
        <path d="M34,289 h6 M37,286 v6" fill="none" stroke="#10b981" stroke-width="2" stroke-linecap="round"/>
        <text x="65" y="294" fill="#10b981">Prescriptions</text>

        <path d="M30,340 l8,5 l8,-5" fill="none" stroke="#94a3b8" stroke-width="2" stroke-linecap="round" stroke-linejoin="round"/>
        <rect x="30" y="336" width="18" height="14" rx="2" fill="none" stroke="#94a3b8" stroke-width="2"/>
        <circle cx="48" cy="336" r="4" fill="#10b981" />
        <text x="65" y="348">Messages</text>

        <circle cx="38" cy="392" r="8" fill="none" stroke="#94a3b8" stroke-width="2"/>
        <path d="M38,388 v5 l3,2" fill="none" stroke="#94a3b8" stroke-width="2" stroke-linecap="round"/>
        <text x="65" y="396">History</text>

        <circle cx="38" cy="510" r="8" fill="none" stroke="#94a3b8" stroke-width="2"/>
        <path d="M36,508 c0,-2 4,-2 4,0 c0,2 -2,3 -2,3 M38,515 v1" fill="none" stroke="#94a3b8" stroke-width="2" stroke-linecap="round"/>
        <text x="65" y="514">Help</text>

        <path d="M38,555 h-6 v14 h6 M40,558 l4,4 l-4,4 M32,562 h12" fill="none" stroke="#94a3b8" stroke-width="2" stroke-linecap="round"/>
        <text x="65" y="567">Logout</text>
      </g>
    </g>

    <g transform="translate(250, 20)">
      <text x="0" y="40" font-family="system-ui, sans-serif" font-size="22" font-weight="600" fill="#334155">Prescriptions</text>
      
      <path d="M 680 40 a 6 6 0 0 0 -12 0 v 4 l -2 2 v 2 h 16 v -2 l -2 -2 v -4 z M 671 49 a 3 3 0 0 0 6 0" fill="none" stroke="#64748b" stroke-width="1.8" stroke-linejoin="round"/>
      <circle cx="715" cy="40" r="7" fill="none" stroke="#64748b" stroke-width="1.8" stroke-dasharray="2 2"/>
      <circle cx="715" cy="40" r="3" fill="none" stroke="#64748b" stroke-width="1.8"/>
      
      <circle cx="760" cy="40" r="16" fill="#94a3b8" />
      <circle cx="760" cy="35" r="5" fill="#f8fafc" />
      <path d="M748,50 a12,12 0 0,1 24,0" fill="#f8fafc" />
    </g>

    <g transform="translate(250, 80)">
      <rect width="380" height="540" rx="12" fill="#ffffff" filter="url(#widgetShadow)" />
      
      <text x="20" y="35" font-family="system-ui, sans-serif" font-size="14" font-weight="600" fill="#64748b">Active Prescriptions</text>
      <text x="300" y="35" font-family="system-ui, sans-serif" font-size="12" font-weight="500" fill="#94a3b8">Sort by date ▾</text>
      <line x1="20" y1="55" x2="360" y2="55" stroke="#f1f5f9" stroke-width="2"/>

      <g transform="translate(0, 60)">
        <text x="20" y="25" font-family="system-ui, sans-serif" font-size="12" font-weight="700" fill="#10b981">Dentist</text>
        <text x="20" y="45" font-family="system-ui, sans-serif" font-size="14" font-weight="600" fill="#0f172a">Dr. Schubert</text>
        <text x="20" y="70" font-family="system-ui, sans-serif" font-size="12" font-weight="500" fill="#64748b">23.10.2023</text>
        <text x="180" y="70" font-family="system-ui, sans-serif" font-size="12" font-weight="500" fill="#64748b">Validity 06.11.2023</text>
        <circle cx="340" cy="40" r="16" fill="#cbd5e1" />
        <line x1="20" y1="90" x2="360" y2="90" stroke="#f1f5f9" stroke-width="1"/>
      </g>

      <g transform="translate(0, 150)">
        <rect width="380" height="90" fill="#f0fdf4" /> 
        <rect width="3" height="90" fill="#10b981" /> 
        <text x="20" y="25" font-family="system-ui, sans-serif" font-size="12" font-weight="700" fill="#10b981">General practitioner</text>
        <text x="20" y="45" font-family="system-ui, sans-serif" font-size="14" font-weight="600" fill="#0f172a">Dr. Bernard</text>
        <text x="20" y="70" font-family="system-ui, sans-serif" font-size="12" font-weight="500" fill="#64748b">15.09.2023</text>
        <text x="180" y="70" font-family="system-ui, sans-serif" font-size="12" font-weight="500" fill="#64748b">Validity 15.10.2023</text>
        <circle cx="340" cy="40" r="16" fill="#94a3b8" />
        <line x1="20" y1="90" x2="360" y2="90" stroke="#f1f5f9" stroke-width="1"/>
      </g>

      <g transform="translate(0, 240)">
        <text x="20" y="25" font-family="system-ui, sans-serif" font-size="12" font-weight="700" fill="#10b981">Ophthalmologist</text>
        <text x="20" y="45" font-family="system-ui, sans-serif" font-size="14" font-weight="600" fill="#0f172a">Dr. Faerber</text>
        <text x="20" y="70" font-family="system-ui, sans-serif" font-size="12" font-weight="500" fill="#64748b">28.08.2023</text>
        <text x="180" y="70" font-family="system-ui, sans-serif" font-size="12" font-weight="500" fill="#64748b">Validity 15.09.2023</text>
        <circle cx="340" cy="40" r="16" fill="#e2e8f0" />
        <line x1="20" y1="90" x2="360" y2="90" stroke="#f1f5f9" stroke-width="1"/>
      </g>

      <g transform="translate(0, 330)">
        <text x="20" y="25" font-family="system-ui, sans-serif" font-size="12" font-weight="700" fill="#10b981">Dermatologist</text>
        <text x="20" y="45" font-family="system-ui, sans-serif" font-size="14" font-weight="600" fill="#0f172a">Dr. Vogt</text>
        <text x="20" y="70" font-family="system-ui, sans-serif" font-size="12" font-weight="500" fill="#64748b">15.08.2023</text>
        <text x="180" y="70" font-family="system-ui, sans-serif" font-size="12" font-weight="500" fill="#64748b">Validity 02.09.2023</text>
        <circle cx="340" cy="40" r="16" fill="#cbd5e1" />
        <line x1="20" y1="90" x2="360" y2="90" stroke="#f1f5f9" stroke-width="1"/>
      </g>
      
      <g transform="translate(0, 420)">
        <text x="20" y="25" font-family="system-ui, sans-serif" font-size="12" font-weight="700" fill="#10b981">Pediatrician</text>
        <text x="20" y="45" font-family="system-ui, sans-serif" font-size="14" font-weight="600" fill="#0f172a">Dr. Wagner</text>
        <text x="20" y="70" font-family="system-ui, sans-serif" font-size="12" font-weight="500" fill="#64748b">25.07.2023</text>
        <text x="180" y="70" font-family="system-ui, sans-serif" font-size="12" font-weight="500" fill="#64748b">Validity 15.08.2023</text>
        <circle cx="340" cy="40" r="16" fill="#94a3b8" />
      </g>
    </g>

    <g transform="translate(640, 80)">
      <rect width="380" height="260" rx="8" fill="#ffffff" filter="url(#widgetShadow)" />
      <rect x="10" y="10" width="360" height="240" fill="none" stroke="#e2e8f0" stroke-width="2" />
      
      <text x="25" y="35" font-family="monospace, sans-serif" font-size="11" font-weight="700" fill="#0f172a">Printout to redeem your e-prescription</text>
      
      <rect x="25" y="45" width="230" height="30" rx="4" fill="none" stroke="#e2e8f0" stroke-width="1" />
      <text x="35" y="55" font-family="monospace, sans-serif" font-size="6" fill="#64748b">FOR</text>
      <text x="35" y="67" font-family="monospace, sans-serif" font-size="11" font-weight="600" fill="#0f172a">René Schluß</text>
      <text x="180" y="55" font-family="monospace, sans-serif" font-size="6" fill="#64748b">BORN</text>
      <text x="180" y="67" font-family="monospace, sans-serif" font-size="11" font-weight="600" fill="#0f172a">30.07.1996</text>

      <rect x="25" y="85" width="230" height="40" rx="4" fill="none" stroke="#e2e8f0" stroke-width="1" />
      <text x="35" y="95" font-family="monospace, sans-serif" font-size="6" fill="#64748b">FROM</text>
      <text x="35" y="105" font-family="monospace, sans-serif" font-size="10" font-weight="600" fill="#0f172a">Dr. Bernard</text>
      <text x="35" y="115" font-family="monospace, sans-serif" font-size="8" fill="#334155">General practitioner</text>
      <text x="180" y="95" font-family="monospace, sans-serif" font-size="6" fill="#64748b">DATE</text>
      <text x="180" y="105" font-family="monospace, sans-serif" font-size="10" font-weight="600" fill="#0f172a">15.09.2023</text>

      <g transform="translate(270, 45)">
        <rect width="80" height="80" fill="url(#qrNoise)" />
        <path d="M0,0 h22 v22 h-22 z M5,5 h12 v12 h-12 z" fill="#0f172a" />
        <path d="M58,0 h22 v22 h-22 z M63,5 h12 v12 h-12 z" fill="#0f172a" />
        <path d="M0,58 h22 v22 h-22 z M5,63 h12 v12 h-12 z" fill="#0f172a" />
        
        <line x1="-5" y1="0" x2="85" y2="0" stroke="#10b981" stroke-width="3">
           <animate attributeName="y1" values="-5; 85; -5" dur="3s" repeatCount="indefinite" calcMode="spline" keySplines="0.4 0 0.2 1; 0.4 0 0.2 1" />
           <animate attributeName="y2" values="-5; 85; -5" dur="3s" repeatCount="indefinite" calcMode="spline" keySplines="0.4 0 0.2 1; 0.4 0 0.2 1" />
        </line>
        <line x1="-5" y1="0" x2="85" y2="0" stroke="#34d399" stroke-width="8" opacity="0.3">
           <animate attributeName="y1" values="-5; 85; -5" dur="3s" repeatCount="indefinite" calcMode="spline" keySplines="0.4 0 0.2 1; 0.4 0 0.2 1" />
           <animate attributeName="y2" values="-5; 85; -5" dur="3s" repeatCount="indefinite" calcMode="spline" keySplines="0.4 0 0.2 1; 0.4 0 0.2 1" />
        </line>
      </g>

      <g transform="translate(25, 140)">
        <rect width="40" height="40" fill="url(#qrNoise)" />
        <path d="M0,0 h12 v12 h-12 z M3,3 h6 v6 h-6 z M28,0 h12 v12 h-12 z M31,3 h6 v6 h-6 z M0,28 h12 v12 h-12 z M3,31 h6 v6 h-6 z" fill="#0f172a" />
        <text x="50" y="10" font-family="monospace, sans-serif" font-size="8" font-weight="700" fill="#0f172a">1x Ibuflam® 400 mg</text>
        <text x="50" y="20" font-family="monospace, sans-serif" font-size="7" fill="#334155">Lichtenstein / 20 St N1</text>
        <text x="50" y="30" font-family="monospace, sans-serif" font-size="7" fill="#334155">PZN: 06313355</text>
      </g>

      <g transform="translate(190, 140)">
        <rect width="40" height="40" fill="url(#qrNoise)" />
        <path d="M0,0 h12 v12 h-12 z M3,3 h6 v6 h-6 z M28,0 h12 v12 h-12 z M31,3 h6 v6 h-6 z M0,28 h12 v12 h-12 z M3,31 h6 v6 h-6 z" fill="#0f172a" />
        <text x="50" y="10" font-family="monospace, sans-serif" font-size="8" font-weight="700" fill="#0f172a">1x Ibuflam® 400 mg</text>
        <text x="50" y="20" font-family="monospace, sans-serif" font-size="7" fill="#334155">Lichtenstein / 20 St N1</text>
        <text x="50" y="30" font-family="monospace, sans-serif" font-size="7" fill="#334155">PZN: 06313355</text>
      </g>

      <rect x="200" y="195" width="150" height="35" rx="4" fill="none" stroke="#e2e8f0" stroke-width="1" />
      <text x="210" y="210" font-family="system-ui, sans-serif" font-size="7" font-weight="700" fill="#0f172a">App for e-prescription</text>
      <text x="210" y="220" font-family="system-ui, sans-serif" font-size="6" fill="#64748b">Receive your e-prescriptions</text>
      <rect x="325" y="202" width="20" height="20" fill="url(#qrNoise)" />
    </g>

    <g transform="translate(860, 360)">
      <path d="M0,0 l6,6 l6,-6 M6,6 v-10" fill="none" stroke="#64748b" stroke-width="2" stroke-linecap="round" stroke-linejoin="round"/>
      <line x1="0" y1="10" x2="12" y2="10" stroke="#64748b" stroke-width="2" stroke-linecap="round"/>
      <text x="20" y="8" font-family="system-ui, sans-serif" font-size="12" font-weight="600" fill="#64748b">Save</text>

      <path d="M70,0 v-4 h10 v4 M70,8 h10 v6 h-10 z" fill="none" stroke="#64748b" stroke-width="2" stroke-linecap="round" stroke-linejoin="round"/>
      <line x1="68" y1="4" x2="82" y2="4" stroke="#64748b" stroke-width="2" stroke-linecap="round"/>
      <text x="90" y="8" font-family="system-ui, sans-serif" font-size="12" font-weight="600" fill="#64748b">Print</text>
    </g>

    <g transform="translate(640, 400)">
      <rect width="380" height="230" rx="12" fill="#ffffff" filter="url(#widgetShadow)" />
      
      <text x="20" y="35" font-family="system-ui, sans-serif" font-size="14" font-weight="600" fill="#94a3b8">Expired Prescriptions</text>
      <text x="300" y="35" font-family="system-ui, sans-serif" font-size="12" font-weight="500" fill="#cbd5e1">Sort by date ▾</text>
      <line x1="20" y1="55" x2="360" y2="55" stroke="#f1f5f9" stroke-width="2"/>

      <rect x="365" y="65" width="4" height="80" rx="2" fill="#e2e8f0" />

      <g transform="translate(0, 60)" opacity="0.6">
        <text x="20" y="25" font-family="system-ui, sans-serif" font-size="12" font-weight="700" fill="#10b981">Dermatologist</text>
        <text x="20" y="45" font-family="system-ui, sans-serif" font-size="14" font-weight="600" fill="#0f172a">Dr. Vogt</text>
        <text x="20" y="70" font-family="system-ui, sans-serif" font-size="12" font-weight="500" fill="#64748b">05.09.2022</text>
        <text x="180" y="70" font-family="system-ui, sans-serif" font-size="12" font-weight="500" fill="#64748b">Validity 05.12.2022</text>
        <circle cx="340" cy="40" r="16" fill="#cbd5e1" />
        <line x1="20" y1="90" x2="360" y2="90" stroke="#f1f5f9" stroke-width="1"/>
      </g>

      <g transform="translate(0, 150)" opacity="0.6">
        <text x="20" y="25" font-family="system-ui, sans-serif" font-size="12" font-weight="700" fill="#10b981">Pediatrician</text>
        <text x="20" y="45" font-family="system-ui, sans-serif" font-size="14" font-weight="600" fill="#0f172a">Dr. Wagner</text>
        <text x="20" y="70" font-family="system-ui, sans-serif" font-size="12" font-weight="500" fill="#64748b">20.06.2022</text>
        <text x="180" y="70" font-family="system-ui, sans-serif" font-size="12" font-weight="500" fill="#64748b">Validity 10.07.2022</text>
        <circle cx="340" cy="40" r="16" fill="#e2e8f0" />
      </g>
    </g>

  </g>
</svg>
